<svg xmlns="http://www.w3.org/2000/svg" viewBox="0 0 1200 630" width="1200" height="630">
  <!-- andrew dictate — og image -->
  <rect width="1200" height="630" fill="#1B1B1F"/>
  <g transform="translate(80 60) scale(1.0)">
    <rect x="160" y="126" width="188" height="228" rx="56" fill="#EFEAE0"/>
    <path d="M160 268 h188 v30 a56 56 0 0 1 -56 56 h-76 a56 56 0 0 1 -56 -56 z" fill="#2B2521"/>
    <rect x="172" y="206" width="78" height="56" rx="20" fill="#0E0E11"/>
    <rect x="258" y="206" width="78" height="56" rx="20" fill="#0E0E11"/>
    <rect x="246" y="216" width="16" height="10" fill="#0E0E11"/>
    <rect x="152" y="216" width="24" height="10" fill="#0E0E11"/>
    <rect x="332" y="216" width="24" height="10" fill="#0E0E11"/>
    <g transform="rotate(-12 306 316)">
      <rect x="302" y="304" width="112" height="24" rx="12" fill="#6E4226"/>
      <rect x="336" y="304" width="13" height="24" fill="#E4593B" opacity="0.85"/>
      <rect x="402" y="306" width="12" height="20" rx="6" fill="#E4593B"/>
    </g>
    <g fill="#EFEAE0">
      <rect x="392" y="226" width="13" height="40"  rx="6.5"/>
      <rect x="414" y="192" width="13" height="74"  rx="6.5" fill="#E4593B"/>
      <rect x="436" y="158" width="13" height="108" rx="6.5"/>
      <rect x="458" y="208" width="13" height="58"  rx="6.5"/>
    </g>
  </g>
  <text x="620" y="300" font-family="-apple-system, 'Helvetica Neue', Arial, sans-serif" font-size="88" font-weight="600" letter-spacing="-2" fill="#EFEAE0">andrew dictate</text>
  <text x="624" y="368" font-family="ui-monospace, 'SF Mono', Menlo, monospace" font-size="38" fill="#E4593B">escape the keyboard.</text>
  <text x="624" y="540" font-family="ui-monospace, 'SF Mono', Menlo, monospace" font-size="26" fill="#EFEAE0" fill-opacity="0.55">free · open source · fully local</text>
</svg>
